<svg xmlns="http://www.w3.org/2000/svg" xmlns:xlink="http://www.w3.org/1999/xlink" width="1147" height="888" fill="#000" fill-opacity="1" stroke="#000" stroke-dasharray="none" stroke-dashoffset="0" stroke-linecap="square" stroke-linejoin="miter" stroke-miterlimit="10" stroke-opacity="1" stroke-width="1" color-interpolation="auto" color-rendering="auto" font-family="'Dialog'" font-size="12" font-style="normal" font-weight="normal" image-rendering="auto" shape-rendering="auto" text-rendering="auto"><g><defs id="defs1"><clipPath id="clipPath1" clipPathUnits="userSpaceOnUse"><path d="M0 0 L1147 0 L1147 888 L0 888 L0 0 Z"/></clipPath><clipPath id="clipPath2" clipPathUnits="userSpaceOnUse"><path d="M578 306 L1725 306 L1725 1194 L578 1194 L578 306 Z"/></clipPath><clipPath id="clipPath3" clipPathUnits="userSpaceOnUse"><path d="M1280 542 L1280 698 L1709 698 L1709 542 Z"/></clipPath><clipPath id="clipPath4" clipPathUnits="userSpaceOnUse"><path d="M861 542 L861 698 L1211 698 L1211 542 Z"/></clipPath><clipPath id="clipPath5" clipPathUnits="userSpaceOnUse"><path d="M593 542 L593 605 L793 605 L793 542 Z"/></clipPath><clipPath id="clipPath6" clipPathUnits="userSpaceOnUse"><path d="M1342 1023 L1342 1179 L1646 1179 L1646 1023 Z"/></clipPath><clipPath id="clipPath7" clipPathUnits="userSpaceOnUse"><path d="M1342 321 L1342 405 L1646 405 L1646 321 Z"/></clipPath><clipPath id="clipPath8" clipPathUnits="userSpaceOnUse"><path d="M593 635 L593 698 L793 698 L793 635 Z"/></clipPath></defs><g fill="#fff" stroke="#fff" shape-rendering="geometricPrecision" text-rendering="geometricPrecision" transform="translate(-578,-306)"><rect width="1147" height="888" x="578" y="306" stroke="none" clip-path="url(#clipPath2)"/></g><g fill="#FC0" stroke="#FC0" shape-rendering="geometricPrecision" text-rendering="geometricPrecision" transform="matrix(1,0,0,1,-578,-306)"><rect width="427" height="154" x="1281" y="543" stroke="none" clip-path="url(#clipPath2)"/><rect width="1" height="156" x="1280" y="542" fill="#ff0" stroke="none" clip-path="url(#clipPath2)"/><rect width="427" height="1" x="1281" y="542" fill="#ff0" stroke="none" clip-path="url(#clipPath2)"/><rect width="428" height="1" x="1281" y="697" fill="#B28E00" stroke="none" clip-path="url(#clipPath2)"/><rect width="1" height="155" x="1708" y="542" fill="#B28E00" stroke="none" clip-path="url(#clipPath2)"/></g><g stroke-linecap="butt" stroke-miterlimit="1.45" font-family="sans-serif" shape-rendering="geometricPrecision" text-rendering="geometricPrecision" transform="matrix(1,0,0,1,-578,-306)"><text x="1459.846" y="558.939" stroke="none" clip-path="url(#clipPath3)" xml:space="preserve">&lt;&lt;class&gt;&gt;</text><text x="1415.425" y="582.836" stroke="none" clip-path="url(#clipPath3)" font-size="13" font-weight="bold" xml:space="preserve">CachingHtmlCompiler</text><line x1="1281" x2="1708" y1="590" y2="590" fill="none" stroke-linecap="square" stroke-miterlimit="10" clip-path="url(#clipPath3)"/><line x1="1281" x2="1708" y1="600" y2="600" fill="none" stroke-linecap="square" stroke-miterlimit="10" clip-path="url(#clipPath3)"/><text x="1285.35" y="617.04" stroke="none" clip-path="url(#clipPath3)" xml:space="preserve">constructor: (name, tagScannerFct, tagHandlerFct) =&gt; instance</text></g><g fill="#FC0" stroke="#FC0" shape-rendering="geometricPrecision" text-rendering="geometricPrecision" transform="matrix(1,0,0,1,-578,-306)"><rect width="348" height="154" x="862" y="543" stroke="none" clip-path="url(#clipPath2)"/><rect width="1" height="156" x="861" y="542" fill="#ff0" stroke="none" clip-path="url(#clipPath2)"/><rect width="348" height="1" x="862" y="542" fill="#ff0" stroke="none" clip-path="url(#clipPath2)"/><rect width="349" height="1" x="862" y="697" fill="#B28E00" stroke="none" clip-path="url(#clipPath2)"/><rect width="1" height="155" x="1210" y="542" fill="#B28E00" stroke="none" clip-path="url(#clipPath2)"/></g><g stroke-linecap="butt" stroke-miterlimit="1.45" font-family="sans-serif" shape-rendering="geometricPrecision" text-rendering="geometricPrecision" transform="matrix(1,0,0,1,-578,-306)"><text x="1001.746" y="558.939" stroke="none" clip-path="url(#clipPath4)" xml:space="preserve">&lt;&lt;class&gt;&gt;</text><text x="975.79" y="582.836" stroke="none" clip-path="url(#clipPath4)" font-size="13" font-weight="bold" xml:space="preserve">TemplatingTools</text><line x1="862" x2="1210" y1="590" y2="590" fill="none" stroke-linecap="square" stroke-miterlimit="10" clip-path="url(#clipPath4)"/><line x1="862" x2="1210" y1="600" y2="600" fill="none" stroke-linecap="square" stroke-miterlimit="10" clip-path="url(#clipPath4)"/><text x="866.75" y="617.04" stroke="none" clip-path="url(#clipPath4)" xml:space="preserve">scanHtmlForTags: sourceFile =&gt; [ { tag} ]</text><text x="866.75" y="631.009" stroke="none" clip-path="url(#clipPath4)" xml:space="preserve">compileTagsToStaticHtml: [ {tag} ] =&gt; { results }</text></g><g fill="#FC0" stroke="#FC0" shape-rendering="geometricPrecision" text-rendering="geometricPrecision" transform="matrix(1,0,0,1,-578,-306)"><rect width="198" height="61" x="594" y="543" stroke="none" clip-path="url(#clipPath2)"/><rect width="1" height="63" x="593" y="542" fill="#ff0" stroke="none" clip-path="url(#clipPath2)"/><rect width="198" height="1" x="594" y="542" fill="#ff0" stroke="none" clip-path="url(#clipPath2)"/><rect width="199" height="1" x="594" y="604" fill="#B28E00" stroke="none" clip-path="url(#clipPath2)"/><rect width="1" height="62" x="792" y="542" fill="#B28E00" stroke="none" clip-path="url(#clipPath2)"/></g><g stroke-linecap="butt" stroke-miterlimit="1.45" font-family="sans-serif" shape-rendering="geometricPrecision" text-rendering="geometricPrecision"><text x="658.146" y="558.939" stroke="none" clip-path="url(#clipPath5)" transform="matrix(1,0,0,1,-578,-306)" xml:space="preserve">&lt;&lt;class&gt;&gt;</text><text x="658.054" y="582.836" stroke="none" clip-path="url(#clipPath5)" font-size="13" font-weight="bold" transform="matrix(1,0,0,1,-578,-306)" xml:space="preserve">HtmlScan</text></g><g fill="#FC0" stroke="#FC0" shape-rendering="geometricPrecision" text-rendering="geometricPrecision" transform="matrix(1,0,0,1,-578,-306)"><rect width="302" height="154" x="1343" y="1024" stroke="none" clip-path="url(#clipPath2)"/><rect width="1" height="156" x="1342" y="1023" fill="#ff0" stroke="none" clip-path="url(#clipPath2)"/><rect width="302" height="1" x="1343" y="1023" fill="#ff0" stroke="none" clip-path="url(#clipPath2)"/><rect width="303" height="1" x="1343" y="1178" fill="#B28E00" stroke="none" clip-path="url(#clipPath2)"/><rect width="1" height="155" x="1645" y="1023" fill="#B28E00" stroke="none" clip-path="url(#clipPath2)"/></g><g stroke-linecap="butt" stroke-miterlimit="1.45" font-family="sans-serif" shape-rendering="geometricPrecision" text-rendering="geometricPrecision" transform="matrix(1,0,0,1,-578,-306)"><text x="1451.523" y="1039.139" stroke="none" clip-path="url(#clipPath6)" xml:space="preserve">&lt;&lt;isobuild&gt;&gt;</text><text x="1471.722" y="1063.036" stroke="none" clip-path="url(#clipPath6)" font-size="13" font-weight="bold" xml:space="preserve">Plugin</text><line x1="1343" x2="1645" y1="1071" y2="1071" fill="none" stroke-linecap="square" stroke-miterlimit="10" clip-path="url(#clipPath6)"/><line x1="1343" x2="1645" y1="1081" y2="1081" fill="none" stroke-linecap="square" stroke-miterlimit="10" clip-path="url(#clipPath6)"/><text x="1347.85" y="1097.24" stroke="none" clip-path="url(#clipPath6)" xml:space="preserve">registerCompiler</text></g><g fill="#FC0" stroke="#FC0" shape-rendering="geometricPrecision" text-rendering="geometricPrecision"><path stroke="none" d="M1342.85 802.1608 L1631.85 802.1608 L1631.85 817.1608 L1646.85 817.1608 L1646.85 898.1608 L1342.85 898.1608 Z" clip-path="url(#clipPath2)" transform="matrix(1,0,0,1,-578,-306)"/><path fill="#fff" fill-rule="evenodd" stroke="none" d="M1631.85 802.1608 L1631.85 817.1608 L1646.85 817.1608 Z" clip-path="url(#clipPath2)" transform="matrix(1,0,0,1,-578,-306)"/></g><g stroke-linecap="butt" stroke-miterlimit="1.45" shape-rendering="geometricPrecision" text-rendering="geometricPrecision"><path fill="none" d="M1342.85 802.1608 L1631.85 802.1608 L1631.85 817.1608 L1646.85 817.1608 L1646.85 898.1608 L1342.85 898.1608 Z" clip-path="url(#clipPath2)" transform="matrix(1,0,0,1,-578,-306)"/><path fill="none" fill-rule="evenodd" d="M1631.85 802.1608 L1631.85 817.1608 L1646.85 817.1608 Z" clip-path="url(#clipPath2)" transform="matrix(1,0,0,1,-578,-306)"/><text x="1410.232" y="854.315" stroke="none" clip-path="url(#clipPath2)" font-family="sans-serif" transform="matrix(1,0,0,1,-578,-306)" xml:space="preserve">new CachingHtmlCompiler()</text></g><g fill="#FC0" stroke="#FC0" shape-rendering="geometricPrecision" text-rendering="geometricPrecision" transform="matrix(1,0,0,1,-578,-306)"><rect width="302" height="82" x="1343" y="322" stroke="none" clip-path="url(#clipPath2)"/><rect width="1" height="84" x="1342" y="321" fill="#ff0" stroke="none" clip-path="url(#clipPath2)"/><rect width="302" height="1" x="1343" y="321" fill="#ff0" stroke="none" clip-path="url(#clipPath2)"/><rect width="303" height="1" x="1343" y="404" fill="#B28E00" stroke="none" clip-path="url(#clipPath2)"/><rect width="1" height="83" x="1645" y="321" fill="#B28E00" stroke="none" clip-path="url(#clipPath2)"/></g><g stroke-linecap="butt" stroke-miterlimit="1.45" font-family="sans-serif" shape-rendering="geometricPrecision" text-rendering="geometricPrecision"><text x="1459.846" y="337.739" stroke="none" clip-path="url(#clipPath7)" transform="matrix(1,0,0,1,-578,-306)" xml:space="preserve">&lt;&lt;class&gt;&gt;</text><text x="1432.973" y="361.636" stroke="none" clip-path="url(#clipPath7)" font-size="13" font-weight="bold" transform="matrix(1,0,0,1,-578,-306)" xml:space="preserve">CachingCompiler</text></g><g fill="#FC0" stroke="#FC0" shape-rendering="geometricPrecision" text-rendering="geometricPrecision" transform="matrix(1,0,0,1,-578,-306)"><rect width="198" height="61" x="594" y="636" stroke="none" clip-path="url(#clipPath2)"/><rect width="1" height="63" x="593" y="635" fill="#ff0" stroke="none" clip-path="url(#clipPath2)"/><rect width="198" height="1" x="594" y="635" fill="#ff0" stroke="none" clip-path="url(#clipPath2)"/><rect width="199" height="1" x="594" y="697" fill="#B28E00" stroke="none" clip-path="url(#clipPath2)"/><rect width="1" height="62" x="792" y="635" fill="#B28E00" stroke="none" clip-path="url(#clipPath2)"/></g><g stroke-linecap="butt" stroke-miterlimit="1.45" font-family="sans-serif" shape-rendering="geometricPrecision" text-rendering="geometricPrecision"><text x="658.146" y="651.939" stroke="none" clip-path="url(#clipPath8)" transform="matrix(1,0,0,1,-578,-306)" xml:space="preserve">&lt;&lt;class&gt;&gt;</text><text x="611.817" y="675.836" stroke="none" clip-path="url(#clipPath8)" font-size="13" font-weight="bold" transform="matrix(1,0,0,1,-578,-306)" xml:space="preserve">StaticHtmlTagHandler</text><path fill="none" d="M854.7816 574.3 L793.1515 574.3" clip-path="url(#clipPath2)" transform="matrix(1,0,0,1,-578,-306)"/><path stroke="none" d="M861.7816 574.3 L854.7816 579.3 L847.7816 574.3 L854.7816 569.3 Z" clip-path="url(#clipPath2)" transform="matrix(1,0,0,1,-578,-306)"/><path fill="none" stroke-dasharray="6 2" d="M1494.85 698.7748 L1494.85 802.1505" clip-path="url(#clipPath2)" transform="matrix(1,0,0,1,-578,-306)"/><path fill="none" d="M1036.75 698.8249 L1036.75 862.2733 L1334.8397 862.2733" clip-path="url(#clipPath2)" transform="matrix(1,0,0,1,-578,-306)"/><path stroke="none" d="M1342.8397 862.2733 L1330.8397 857.2733 L1333.8397 862.2733 L1330.8397 867.2733 Z" clip-path="url(#clipPath2)" transform="matrix(1,0,0,1,-578,-306)"/><text x="1131.417" y="846.32" stroke="none" clip-path="url(#clipPath2)" transform="matrix(1,0,0,1,-578,-306)" xml:space="preserve">&lt;&lt;inject&gt;&gt;</text><path fill="none" d="M1494.85 898.1424 L1494.85 1014.9969" clip-path="url(#clipPath2)" transform="matrix(1,0,0,1,-578,-306)"/><path stroke="none" d="M1494.85 1022.9969 L1499.85 1010.9969 L1494.85 1013.9969 L1489.85 1010.9969 Z" clip-path="url(#clipPath2)" transform="matrix(1,0,0,1,-578,-306)"/><text x="1506.27" y="963.135" stroke="none" clip-path="url(#clipPath2)" transform="matrix(1,0,0,1,-578,-306)" xml:space="preserve">&lt;&lt;register&gt;&gt;</text><path fill="none" d="M1494.85 542.7797 L1494.85 420.639" clip-path="url(#clipPath2)" transform="matrix(1,0,0,1,-578,-306)"/><path fill="#fff" stroke="none" d="M1494.85 405.639 L1488.85 421.639 L1500.85 421.639 Z" clip-path="url(#clipPath2)" transform="matrix(1,0,0,1,-578,-306)"/><path fill="none" d="M1494.85 405.639 L1488.85 421.639 L1500.85 421.639 Z" clip-path="url(#clipPath2)" transform="matrix(1,0,0,1,-578,-306)"/><path fill="none" d="M854.7816 667.3 L793.1515 667.3" clip-path="url(#clipPath2)" transform="matrix(1,0,0,1,-578,-306)"/><path stroke="none" d="M861.7816 667.3 L854.7816 672.3 L847.7816 667.3 L854.7816 662.3 Z" clip-path="url(#clipPath2)" transform="matrix(1,0,0,1,-578,-306)"/></g></g></svg>