<svg xmlns="http://www.w3.org/2000/svg" xmlns:xlink="http://www.w3.org/1999/xlink" width="1194" height="889" fill="#000" fill-opacity="1" stroke="#000" stroke-dasharray="none" stroke-dashoffset="0" stroke-linecap="square" stroke-linejoin="miter" stroke-miterlimit="10" stroke-opacity="1" stroke-width="1" color-interpolation="auto" color-rendering="auto" font-family="'Dialog'" font-size="12" font-style="normal" font-weight="normal" image-rendering="auto" shape-rendering="auto" text-rendering="auto"><g><defs id="defs1"><clipPath id="clipPath1" clipPathUnits="userSpaceOnUse"><path d="M0 0 L1194 0 L1194 889 L0 889 L0 0 Z"/></clipPath><clipPath id="clipPath2" clipPathUnits="userSpaceOnUse"><path d="M-232 -58 L962 -58 L962 831 L-232 831 L-232 -58 Z"/></clipPath><clipPath id="clipPath3" clipPathUnits="userSpaceOnUse"><path d="M517 178 L517 334 L946 334 L946 178 Z"/></clipPath><clipPath id="clipPath4" clipPathUnits="userSpaceOnUse"><path d="M98 178 L98 334 L448 334 L448 178 Z"/></clipPath><clipPath id="clipPath5" clipPathUnits="userSpaceOnUse"><path d="M-169 178 L-169 241 L31 241 L31 178 Z"/></clipPath><clipPath id="clipPath6" clipPathUnits="userSpaceOnUse"><path d="M-169 271 L-169 334 L31 334 L31 271 Z"/></clipPath><clipPath id="clipPath7" clipPathUnits="userSpaceOnUse"><path d="M579 659 L579 815 L883 815 L883 659 Z"/></clipPath><clipPath id="clipPath8" clipPathUnits="userSpaceOnUse"><path d="M579 -42 L579 42 L883 42 L883 -42 Z"/></clipPath></defs><g fill="#fff" stroke="#fff" shape-rendering="geometricPrecision" text-rendering="geometricPrecision" transform="translate(232,58)"><rect width="1194" height="889" x="-232" y="-58" stroke="none" clip-path="url(#clipPath2)"/></g><g fill="#FC0" stroke="#FC0" shape-rendering="geometricPrecision" text-rendering="geometricPrecision" transform="matrix(1,0,0,1,232,58)"><rect width="427" height="154" x="518" y="179" stroke="none" clip-path="url(#clipPath2)"/><rect width="1" height="156" x="517" y="178" fill="#ff0" stroke="none" clip-path="url(#clipPath2)"/><rect width="427" height="1" x="518" y="178" fill="#ff0" stroke="none" clip-path="url(#clipPath2)"/><rect width="428" height="1" x="518" y="333" fill="#B28E00" stroke="none" clip-path="url(#clipPath2)"/><rect width="1" height="155" x="945" y="178" fill="#B28E00" stroke="none" clip-path="url(#clipPath2)"/></g><g stroke-linecap="butt" stroke-miterlimit="1.45" font-family="sans-serif" shape-rendering="geometricPrecision" text-rendering="geometricPrecision" transform="matrix(1,0,0,1,232,58)"><text x="696.846" y="194.939" stroke="none" clip-path="url(#clipPath3)" xml:space="preserve">&lt;&lt;class&gt;&gt;</text><text x="652.425" y="218.836" stroke="none" clip-path="url(#clipPath3)" font-size="13" font-weight="bold" xml:space="preserve">CachingHtmlCompiler</text><line x1="518" x2="945" y1="226" y2="226" fill="none" stroke-linecap="square" stroke-miterlimit="10" clip-path="url(#clipPath3)"/><line x1="518" x2="945" y1="236" y2="236" fill="none" stroke-linecap="square" stroke-miterlimit="10" clip-path="url(#clipPath3)"/><text x="522.35" y="253.04" stroke="none" clip-path="url(#clipPath3)" xml:space="preserve">constructor: (name, tagScannerFct, tagHandlerFct) =&gt; instance</text></g><g fill="#FC0" stroke="#FC0" shape-rendering="geometricPrecision" text-rendering="geometricPrecision" transform="matrix(1,0,0,1,232,58)"><rect width="348" height="154" x="99" y="179" stroke="none" clip-path="url(#clipPath2)"/><rect width="1" height="156" x="98" y="178" fill="#ff0" stroke="none" clip-path="url(#clipPath2)"/><rect width="348" height="1" x="99" y="178" fill="#ff0" stroke="none" clip-path="url(#clipPath2)"/><rect width="349" height="1" x="99" y="333" fill="#B28E00" stroke="none" clip-path="url(#clipPath2)"/><rect width="1" height="155" x="447" y="178" fill="#B28E00" stroke="none" clip-path="url(#clipPath2)"/></g><g stroke-linecap="butt" stroke-miterlimit="1.45" font-family="sans-serif" shape-rendering="geometricPrecision" text-rendering="geometricPrecision" transform="matrix(1,0,0,1,232,58)"><text x="238.746" y="194.939" stroke="none" clip-path="url(#clipPath4)" xml:space="preserve">&lt;&lt;class&gt;&gt;</text><text x="212.79" y="218.836" stroke="none" clip-path="url(#clipPath4)" font-size="13" font-weight="bold" xml:space="preserve">TemplatingTools</text><line x1="99" x2="447" y1="226" y2="226" fill="none" stroke-linecap="square" stroke-miterlimit="10" clip-path="url(#clipPath4)"/><line x1="99" x2="447" y1="236" y2="236" fill="none" stroke-linecap="square" stroke-miterlimit="10" clip-path="url(#clipPath4)"/><text x="103.75" y="253.04" stroke="none" clip-path="url(#clipPath4)" xml:space="preserve">scanHtmlForTags: sourceFile =&gt; [ { tag} ]</text><text x="103.75" y="267.009" stroke="none" clip-path="url(#clipPath4)" xml:space="preserve">compileTagsWithSpacebars: [ {tag} ] =&gt; { results }</text></g><g fill="#FC0" stroke="#FC0" shape-rendering="geometricPrecision" text-rendering="geometricPrecision" transform="matrix(1,0,0,1,232,58)"><rect width="198" height="61" x="-168" y="179" stroke="none" clip-path="url(#clipPath2)"/><rect width="1" height="63" x="-169" y="178" fill="#ff0" stroke="none" clip-path="url(#clipPath2)"/><rect width="198" height="1" x="-168" y="178" fill="#ff0" stroke="none" clip-path="url(#clipPath2)"/><rect width="199" height="1" x="-168" y="240" fill="#B28E00" stroke="none" clip-path="url(#clipPath2)"/><rect width="1" height="62" x="30" y="178" fill="#B28E00" stroke="none" clip-path="url(#clipPath2)"/></g><g stroke-linecap="butt" stroke-miterlimit="1.45" font-family="sans-serif" shape-rendering="geometricPrecision" text-rendering="geometricPrecision"><text x="-104.854" y="194.939" stroke="none" clip-path="url(#clipPath5)" transform="matrix(1,0,0,1,232,58)" xml:space="preserve">&lt;&lt;class&gt;&gt;</text><text x="-104.946" y="218.836" stroke="none" clip-path="url(#clipPath5)" font-size="13" font-weight="bold" transform="matrix(1,0,0,1,232,58)" xml:space="preserve">HtmlScan</text></g><g fill="#FC0" stroke="#FC0" shape-rendering="geometricPrecision" text-rendering="geometricPrecision" transform="matrix(1,0,0,1,232,58)"><rect width="198" height="61" x="-168" y="272" stroke="none" clip-path="url(#clipPath2)"/><rect width="1" height="63" x="-169" y="271" fill="#ff0" stroke="none" clip-path="url(#clipPath2)"/><rect width="198" height="1" x="-168" y="271" fill="#ff0" stroke="none" clip-path="url(#clipPath2)"/><rect width="199" height="1" x="-168" y="333" fill="#B28E00" stroke="none" clip-path="url(#clipPath2)"/><rect width="1" height="62" x="30" y="271" fill="#B28E00" stroke="none" clip-path="url(#clipPath2)"/></g><g stroke-linecap="butt" stroke-miterlimit="1.45" font-family="sans-serif" shape-rendering="geometricPrecision" text-rendering="geometricPrecision"><text x="-104.854" y="287.939" stroke="none" clip-path="url(#clipPath6)" transform="matrix(1,0,0,1,232,58)" xml:space="preserve">&lt;&lt;class&gt;&gt;</text><text x="-154.15" y="311.836" stroke="none" clip-path="url(#clipPath6)" font-size="13" font-weight="bold" transform="matrix(1,0,0,1,232,58)" xml:space="preserve">SpacebarsTagCompiler</text></g><g fill="#FC0" stroke="#FC0" shape-rendering="geometricPrecision" text-rendering="geometricPrecision" transform="matrix(1,0,0,1,232,58)"><rect width="290" height="111" x="-215" y="429" stroke="none" clip-path="url(#clipPath2)"/><rect width="1" height="113" x="-216" y="428" fill="#ff0" stroke="none" clip-path="url(#clipPath2)"/><rect width="290" height="1" x="-215" y="428" fill="#ff0" stroke="none" clip-path="url(#clipPath2)"/><rect width="291" height="1" x="-215" y="540" fill="#B28E00" stroke="none" clip-path="url(#clipPath2)"/><rect width="1" height="112" x="75" y="428" fill="#B28E00" stroke="none" clip-path="url(#clipPath2)"/></g><g stroke-linecap="butt" stroke-miterlimit="1.45" font-family="sans-serif" shape-rendering="geometricPrecision" text-rendering="geometricPrecision" transform="matrix(1,0,0,1,232,58)"><text x="-104.854" y="444.939" stroke="none" clip-path="url(#clipPath2)" xml:space="preserve">&lt;&lt;class&gt;&gt;</text><text x="-140.677" y="468.836" stroke="none" clip-path="url(#clipPath2)" font-size="13" font-weight="bold" xml:space="preserve">SpacebarsCompiler</text><line x1="-215" x2="75" y1="476" y2="476" fill="none" stroke-linecap="square" stroke-miterlimit="10" clip-path="url(#clipPath2)"/><line x1="-215" x2="75" y1="486" y2="486" fill="none" stroke-linecap="square" stroke-miterlimit="10" clip-path="url(#clipPath2)"/><text x="-211.1" y="503.04" stroke="none" clip-path="url(#clipPath2)" xml:space="preserve">compile: (input, options) =&gt; code:String</text><text x="-211.1" y="517.009" stroke="none" clip-path="url(#clipPath2)" xml:space="preserve">isReservedName: name =&gt; Boolean</text></g><g fill="#FC0" stroke="#FC0" shape-rendering="geometricPrecision" text-rendering="geometricPrecision" transform="matrix(1,0,0,1,232,58)"><rect width="302" height="154" x="580" y="660" stroke="none" clip-path="url(#clipPath2)"/><rect width="1" height="156" x="579" y="659" fill="#ff0" stroke="none" clip-path="url(#clipPath2)"/><rect width="302" height="1" x="580" y="659" fill="#ff0" stroke="none" clip-path="url(#clipPath2)"/><rect width="303" height="1" x="580" y="814" fill="#B28E00" stroke="none" clip-path="url(#clipPath2)"/><rect width="1" height="155" x="882" y="659" fill="#B28E00" stroke="none" clip-path="url(#clipPath2)"/></g><g stroke-linecap="butt" stroke-miterlimit="1.45" font-family="sans-serif" shape-rendering="geometricPrecision" text-rendering="geometricPrecision" transform="matrix(1,0,0,1,232,58)"><text x="688.523" y="675.139" stroke="none" clip-path="url(#clipPath7)" xml:space="preserve">&lt;&lt;isobuild&gt;&gt;</text><text x="708.722" y="699.036" stroke="none" clip-path="url(#clipPath7)" font-size="13" font-weight="bold" xml:space="preserve">Plugin</text><line x1="580" x2="882" y1="707" y2="707" fill="none" stroke-linecap="square" stroke-miterlimit="10" clip-path="url(#clipPath7)"/><line x1="580" x2="882" y1="717" y2="717" fill="none" stroke-linecap="square" stroke-miterlimit="10" clip-path="url(#clipPath7)"/><text x="584.85" y="733.24" stroke="none" clip-path="url(#clipPath7)" xml:space="preserve">registerCompiler</text></g><g fill="#FC0" stroke="#FC0" shape-rendering="geometricPrecision" text-rendering="geometricPrecision"><path stroke="none" d="M579.85 438.1608 L868.85 438.1608 L868.85 453.1608 L883.85 453.1608 L883.85 534.1608 L579.85 534.1608 Z" clip-path="url(#clipPath2)" transform="matrix(1,0,0,1,232,58)"/><path fill="#fff" fill-rule="evenodd" stroke="none" d="M868.85 438.1608 L868.85 453.1608 L883.85 453.1608 Z" clip-path="url(#clipPath2)" transform="matrix(1,0,0,1,232,58)"/></g><g stroke-linecap="butt" stroke-miterlimit="1.45" shape-rendering="geometricPrecision" text-rendering="geometricPrecision"><path fill="none" d="M579.85 438.1608 L868.85 438.1608 L868.85 453.1608 L883.85 453.1608 L883.85 534.1608 L579.85 534.1608 Z" clip-path="url(#clipPath2)" transform="matrix(1,0,0,1,232,58)"/><path fill="none" fill-rule="evenodd" d="M868.85 438.1608 L868.85 453.1608 L883.85 453.1608 Z" clip-path="url(#clipPath2)" transform="matrix(1,0,0,1,232,58)"/><text x="647.232" y="490.315" stroke="none" clip-path="url(#clipPath2)" font-family="sans-serif" transform="matrix(1,0,0,1,232,58)" xml:space="preserve">new CachingHtmlCompiler()</text></g><g fill="#FC0" stroke="#FC0" shape-rendering="geometricPrecision" text-rendering="geometricPrecision" transform="matrix(1,0,0,1,232,58)"><rect width="302" height="82" x="580" y="-41" stroke="none" clip-path="url(#clipPath2)"/><rect width="1" height="84" x="579" y="-42" fill="#ff0" stroke="none" clip-path="url(#clipPath2)"/><rect width="302" height="1" x="580" y="-42" fill="#ff0" stroke="none" clip-path="url(#clipPath2)"/><rect width="303" height="1" x="580" y="41" fill="#B28E00" stroke="none" clip-path="url(#clipPath2)"/><rect width="1" height="83" x="882" y="-42" fill="#B28E00" stroke="none" clip-path="url(#clipPath2)"/></g><g stroke-linecap="butt" stroke-miterlimit="1.45" font-family="sans-serif" shape-rendering="geometricPrecision" text-rendering="geometricPrecision"><text x="696.846" y="-26.261" stroke="none" clip-path="url(#clipPath8)" transform="matrix(1,0,0,1,232,58)" xml:space="preserve">&lt;&lt;class&gt;&gt;</text><text x="669.973" y="-2.364" stroke="none" clip-path="url(#clipPath8)" font-size="13" font-weight="bold" transform="matrix(1,0,0,1,232,58)" xml:space="preserve">CachingCompiler</text><path fill="none" d="M91.7815 210.3 L30.1515 210.3" clip-path="url(#clipPath2)" transform="matrix(1,0,0,1,232,58)"/><path stroke="none" d="M98.7815 210.3 L91.7815 215.3 L84.7815 210.3 L91.7815 205.3 Z" clip-path="url(#clipPath2)" transform="matrix(1,0,0,1,232,58)"/><path fill="none" d="M91.7815 303.3 L30.1515 303.3" clip-path="url(#clipPath2)" transform="matrix(1,0,0,1,232,58)"/><path stroke="none" d="M98.7815 303.3 L91.7815 308.3 L84.7815 303.3 L91.7815 298.3 Z" clip-path="url(#clipPath2)" transform="matrix(1,0,0,1,232,58)"/><path fill="none" d="M-69.85 341.8034 L-69.85 428.827" clip-path="url(#clipPath2)" transform="matrix(1,0,0,1,232,58)"/><path fill="#fff" stroke="none" d="M-69.85 334.8034 L-64.85 341.8034 L-69.85 348.8034 L-74.85 341.8034 Z" clip-path="url(#clipPath2)" transform="matrix(1,0,0,1,232,58)"/><path fill="none" d="M-69.85 334.8034 L-64.85 341.8034 L-69.85 348.8034 L-74.85 341.8034 Z" clip-path="url(#clipPath2)" transform="matrix(1,0,0,1,232,58)"/><path fill="none" stroke-dasharray="6 2" d="M731.85 334.7748 L731.85 438.1505" clip-path="url(#clipPath2)" transform="matrix(1,0,0,1,232,58)"/><path fill="none" d="M273.75 334.8249 L273.75 498.2733 L571.8397 498.2733" clip-path="url(#clipPath2)" transform="matrix(1,0,0,1,232,58)"/><path stroke="none" d="M579.8397 498.2733 L567.8397 493.2733 L570.8397 498.2733 L567.8397 503.2733 Z" clip-path="url(#clipPath2)" transform="matrix(1,0,0,1,232,58)"/><text x="368.417" y="482.32" stroke="none" clip-path="url(#clipPath2)" transform="matrix(1,0,0,1,232,58)" xml:space="preserve">&lt;&lt;inject&gt;&gt;</text><path fill="none" d="M731.85 534.1424 L731.85 650.9969" clip-path="url(#clipPath2)" transform="matrix(1,0,0,1,232,58)"/><path stroke="none" d="M731.85 658.9969 L736.85 646.9969 L731.85 649.9969 L726.85 646.9969 Z" clip-path="url(#clipPath2)" transform="matrix(1,0,0,1,232,58)"/><text x="743.27" y="599.135" stroke="none" clip-path="url(#clipPath2)" transform="matrix(1,0,0,1,232,58)" xml:space="preserve">&lt;&lt;register&gt;&gt;</text><path fill="none" d="M731.85 178.7797 L731.85 56.639" clip-path="url(#clipPath2)" transform="matrix(1,0,0,1,232,58)"/><path fill="#fff" stroke="none" d="M731.85 41.639 L725.85 57.639 L737.85 57.639 Z" clip-path="url(#clipPath2)" transform="matrix(1,0,0,1,232,58)"/><path fill="none" d="M731.85 41.639 L725.85 57.639 L737.85 57.639 Z" clip-path="url(#clipPath2)" transform="matrix(1,0,0,1,232,58)"/></g></g></svg>